<svg width="1342" height="332" viewBox="0 0 1342 332" fill="none" xmlns="http://www.w3.org/2000/svg">
<g filter="url(#filter0_d_1435_1885)">
<path d="M11 21C11 15.4772 15.4772 11 21 11H314C319.523 11 324 15.4772 324 21V303C324 308.523 319.523 313 314 313H21C15.4771 313 11 308.523 11 303V21Z" fill="white"/>
</g>
<g filter="url(#filter1_d_1435_1885)">
<rect x="11" y="11" width="313" height="193" rx="10" fill="#1E88E5"/>
</g>
<path d="M37.2779 267V244.65H52.5779V248.7H41.9279V254.37H51.0779V258.42H41.9279V267H37.2779ZM59.01 267.36C57.83 267.36 56.81 267.17 55.95 266.79C55.09 266.41 54.43 265.87 53.97 265.17C53.51 264.45 53.28 263.6 53.28 262.62C53.28 261.7 53.49 260.89 53.91 260.19C54.33 259.47 54.97 258.87 55.83 258.39C56.71 257.91 57.8 257.57 59.1 257.37L64.11 256.56V259.86L59.91 260.61C59.27 260.73 58.78 260.94 58.44 261.24C58.1 261.52 57.93 261.93 57.93 262.47C57.93 262.97 58.12 263.36 58.5 263.64C58.88 263.92 59.35 264.06 59.91 264.06C60.65 264.06 61.3 263.9 61.86 263.58C62.42 263.26 62.85 262.83 63.15 262.29C63.47 261.73 63.63 261.12 63.63 260.46V256.2C63.63 255.58 63.38 255.06 62.88 254.64C62.4 254.22 61.74 254.01 60.9 254.01C60.1 254.01 59.39 254.23 58.77 254.67C58.17 255.11 57.73 255.69 57.45 256.41L53.85 254.7C54.17 253.78 54.68 252.99 55.38 252.33C56.08 251.67 56.92 251.16 57.9 250.8C58.88 250.44 59.95 250.26 61.11 250.26C62.49 250.26 63.71 250.51 64.77 251.01C65.83 251.51 66.65 252.21 67.23 253.11C67.83 253.99 68.13 255.02 68.13 256.2V267H63.93V264.36L64.95 264.18C64.47 264.9 63.94 265.5 63.36 265.98C62.78 266.44 62.13 266.78 61.41 267C60.69 267.24 59.89 267.36 59.01 267.36ZM79.4703 267.36C77.8303 267.36 76.3503 266.99 75.0303 266.25C73.7303 265.49 72.6903 264.46 71.9103 263.16C71.1503 261.86 70.7703 260.4 70.7703 258.78C70.7703 257.16 71.1503 255.71 71.9103 254.43C72.6703 253.13 73.7103 252.11 75.0303 251.37C76.3503 250.63 77.8303 250.26 79.4703 250.26C80.6903 250.26 81.8203 250.47 82.8603 250.89C83.9003 251.31 84.7903 251.9 85.5303 252.66C86.2703 253.4 86.8003 254.28 87.1203 255.3L83.2203 256.98C82.9403 256.16 82.4603 255.51 81.7803 255.03C81.1203 254.55 80.3503 254.31 79.4703 254.31C78.6903 254.31 77.9903 254.5 77.3703 254.88C76.7703 255.26 76.2903 255.79 75.9303 256.47C75.5903 257.15 75.4203 257.93 75.4203 258.81C75.4203 259.69 75.5903 260.47 75.9303 261.15C76.2903 261.83 76.7703 262.36 77.3703 262.74C77.9903 263.12 78.6903 263.31 79.4703 263.31C80.3703 263.31 81.1503 263.07 81.8103 262.59C82.4703 262.11 82.9403 261.46 83.2203 260.64L87.1203 262.35C86.8203 263.31 86.3003 264.17 85.5603 264.93C84.8203 265.69 83.9303 266.29 82.8903 266.73C81.8503 267.15 80.7103 267.36 79.4703 267.36ZM97.6601 267.36C95.9201 267.36 94.4101 266.98 93.1301 266.22C91.8501 265.44 90.8601 264.4 90.1601 263.1C89.4601 261.8 89.1101 260.36 89.1101 258.78C89.1101 257.14 89.4701 255.68 90.1901 254.4C90.9301 253.12 91.9201 252.11 93.1601 251.37C94.4001 250.63 95.8001 250.26 97.3601 250.26C98.6601 250.26 99.8101 250.47 100.81 250.89C101.81 251.29 102.65 251.86 103.33 252.6C104.03 253.34 104.56 254.2 104.92 255.18C105.28 256.14 105.46 257.19 105.46 258.33C105.46 258.65 105.44 258.97 105.4 259.29C105.38 259.59 105.33 259.85 105.25 260.07H92.9801V256.77H102.7L100.57 258.33C100.77 257.47 100.76 256.71 100.54 256.05C100.32 255.37 99.9301 254.84 99.3701 254.46C98.8301 254.06 98.1601 253.86 97.3601 253.86C96.5801 253.86 95.9101 254.05 95.3501 254.43C94.7901 254.81 94.3701 255.37 94.0901 256.11C93.8101 256.85 93.7001 257.75 93.7601 258.81C93.6801 259.73 93.7901 260.54 94.0901 261.24C94.3901 261.94 94.8501 262.49 95.4701 262.89C96.0901 263.27 96.8401 263.46 97.7201 263.46C98.5201 263.46 99.2001 263.3 99.7601 262.98C100.34 262.66 100.79 262.22 101.11 261.66L104.71 263.37C104.39 264.17 103.88 264.87 103.18 265.47C102.5 266.07 101.69 266.54 100.75 266.88C99.8101 267.2 98.7801 267.36 97.6601 267.36ZM113.831 267V244.65H122.381C123.921 244.65 125.281 244.92 126.461 245.46C127.661 246 128.601 246.8 129.281 247.86C129.961 248.92 130.301 250.23 130.301 251.79C130.301 253.31 129.951 254.61 129.251 255.69C128.551 256.75 127.611 257.55 126.431 258.09L131.531 267H126.311L120.791 257.13L123.791 258.9H118.481V267H113.831ZM118.481 254.85H122.411C123.071 254.85 123.641 254.72 124.121 254.46C124.601 254.2 124.971 253.84 125.231 253.38C125.511 252.92 125.651 252.39 125.651 251.79C125.651 251.17 125.511 250.63 125.231 250.17C124.971 249.71 124.601 249.35 124.121 249.09C123.641 248.83 123.071 248.7 122.411 248.7H118.481V254.85ZM140.492 267.36C138.752 267.36 137.242 266.98 135.962 266.22C134.682 265.44 133.692 264.4 132.992 263.1C132.292 261.8 131.942 260.36 131.942 258.78C131.942 257.14 132.302 255.68 133.022 254.4C133.762 253.12 134.752 252.11 135.992 251.37C137.232 250.63 138.632 250.26 140.192 250.26C141.492 250.26 142.642 250.47 143.642 250.89C144.642 251.29 145.482 251.86 146.162 252.6C146.862 253.34 147.392 254.2 147.752 255.18C148.112 256.14 148.292 257.19 148.292 258.33C148.292 258.65 148.272 258.97 148.232 259.29C148.212 259.59 148.162 259.85 148.082 260.07H135.812V256.77H145.532L143.402 258.33C143.602 257.47 143.592 256.71 143.372 256.05C143.152 255.37 142.762 254.84 142.202 254.46C141.662 254.06 140.992 253.86 140.192 253.86C139.412 253.86 138.742 254.05 138.182 254.43C137.622 254.81 137.202 255.37 136.922 256.11C136.642 256.85 136.532 257.75 136.592 258.81C136.512 259.73 136.622 260.54 136.922 261.24C137.222 261.94 137.682 262.49 138.302 262.89C138.922 263.27 139.672 263.46 140.552 263.46C141.352 263.46 142.032 263.3 142.592 262.98C143.172 262.66 143.622 262.22 143.942 261.66L147.542 263.37C147.222 264.17 146.712 264.87 146.012 265.47C145.332 266.07 144.522 266.54 143.582 266.88C142.642 267.2 141.612 267.36 140.492 267.36ZM158.982 267.36C157.342 267.36 155.862 266.99 154.542 266.25C153.242 265.49 152.202 264.46 151.422 263.16C150.662 261.86 150.282 260.4 150.282 258.78C150.282 257.16 150.662 255.71 151.422 254.43C152.182 253.13 153.222 252.11 154.542 251.37C155.862 250.63 157.342 250.26 158.982 250.26C160.202 250.26 161.332 250.47 162.372 250.89C163.412 251.31 164.302 251.9 165.042 252.66C165.782 253.4 166.312 254.28 166.632 255.3L162.732 256.98C162.452 256.16 161.972 255.51 161.292 255.03C160.632 254.55 159.862 254.31 158.982 254.31C158.202 254.31 157.502 254.5 156.882 254.88C156.282 255.26 155.802 255.79 155.442 256.47C155.102 257.15 154.932 257.93 154.932 258.81C154.932 259.69 155.102 260.47 155.442 261.15C155.802 261.83 156.282 262.36 156.882 262.74C157.502 263.12 158.202 263.31 158.982 263.31C159.882 263.31 160.662 263.07 161.322 262.59C161.982 262.11 162.452 261.46 162.732 260.64L166.632 262.35C166.332 263.31 165.812 264.17 165.072 264.93C164.332 265.69 163.442 266.29 162.402 266.73C161.362 267.15 160.222 267.36 158.982 267.36ZM177.412 267.36C175.792 267.36 174.312 266.99 172.972 266.25C171.652 265.51 170.592 264.5 169.792 263.22C169.012 261.92 168.622 260.45 168.622 258.81C168.622 257.15 169.012 255.68 169.792 254.4C170.592 253.12 171.652 252.11 172.972 251.37C174.312 250.63 175.792 250.26 177.412 250.26C179.032 250.26 180.502 250.63 181.822 251.37C183.142 252.11 184.192 253.12 184.972 254.4C185.772 255.68 186.172 257.15 186.172 258.81C186.172 260.45 185.772 261.92 184.972 263.22C184.192 264.5 183.142 265.51 181.822 266.25C180.502 266.99 179.032 267.36 177.412 267.36ZM177.412 263.31C178.232 263.31 178.942 263.12 179.542 262.74C180.162 262.36 180.642 261.83 180.982 261.15C181.342 260.47 181.522 259.69 181.522 258.81C181.522 257.93 181.342 257.16 180.982 256.5C180.642 255.82 180.162 255.29 179.542 254.91C178.942 254.51 178.232 254.31 177.412 254.31C176.592 254.31 175.872 254.51 175.252 254.91C174.632 255.29 174.142 255.82 173.782 256.5C173.442 257.16 173.272 257.93 173.272 258.81C173.272 259.69 173.442 260.47 173.782 261.15C174.142 261.83 174.632 262.36 175.252 262.74C175.872 263.12 176.592 263.31 177.412 263.31ZM196.863 273.6C195.603 273.6 194.433 273.39 193.353 272.97C192.273 272.55 191.343 271.96 190.563 271.2C189.803 270.46 189.253 269.58 188.913 268.56L193.083 267.09C193.303 267.85 193.753 268.45 194.433 268.89C195.113 269.33 195.923 269.55 196.863 269.55C197.603 269.55 198.243 269.41 198.783 269.13C199.323 268.87 199.733 268.48 200.013 267.96C200.313 267.44 200.463 266.83 200.463 266.13V262.38L201.333 263.46C200.773 264.38 200.053 265.07 199.173 265.53C198.293 265.97 197.263 266.19 196.083 266.19C194.563 266.19 193.203 265.85 192.003 265.17C190.803 264.47 189.863 263.52 189.183 262.32C188.503 261.1 188.163 259.72 188.163 258.18C188.163 256.64 188.503 255.28 189.183 254.1C189.863 252.9 190.793 251.96 191.973 251.28C193.153 250.6 194.493 250.26 195.993 250.26C197.173 250.26 198.203 250.5 199.083 250.98C199.963 251.44 200.713 252.15 201.333 253.11L200.763 254.19V250.62H204.963V266.13C204.963 267.57 204.613 268.85 203.913 269.97C203.213 271.11 202.253 272 201.033 272.64C199.833 273.28 198.443 273.6 196.863 273.6ZM196.713 262.11C197.473 262.11 198.133 261.95 198.693 261.63C199.253 261.31 199.683 260.86 199.983 260.28C200.303 259.7 200.463 259.02 200.463 258.24C200.463 257.46 200.303 256.78 199.983 256.2C199.663 255.6 199.223 255.14 198.663 254.82C198.103 254.48 197.453 254.31 196.713 254.31C195.953 254.31 195.273 254.48 194.673 254.82C194.093 255.14 193.633 255.6 193.293 256.2C192.973 256.78 192.813 257.46 192.813 258.24C192.813 259 192.973 259.67 193.293 260.25C193.633 260.83 194.093 261.29 194.673 261.63C195.273 261.95 195.953 262.11 196.713 262.11ZM208.276 267V250.62H212.476V253.86L212.236 253.14C212.616 252.16 213.226 251.44 214.066 250.98C214.926 250.5 215.926 250.26 217.066 250.26C218.306 250.26 219.386 250.52 220.306 251.04C221.246 251.56 221.976 252.29 222.496 253.23C223.016 254.15 223.276 255.23 223.276 256.47V267H218.776V257.43C218.776 256.79 218.646 256.24 218.386 255.78C218.146 255.32 217.796 254.96 217.336 254.7C216.896 254.44 216.376 254.31 215.776 254.31C215.196 254.31 214.676 254.44 214.216 254.7C213.756 254.96 213.396 255.32 213.136 255.78C212.896 256.24 212.776 256.79 212.776 257.43V267H208.276ZM231.305 267.36C230.125 267.36 229.105 267.17 228.245 266.79C227.385 266.41 226.725 265.87 226.265 265.17C225.805 264.45 225.575 263.6 225.575 262.62C225.575 261.7 225.785 260.89 226.205 260.19C226.625 259.47 227.265 258.87 228.125 258.39C229.005 257.91 230.095 257.57 231.395 257.37L236.405 256.56V259.86L232.205 260.61C231.565 260.73 231.075 260.94 230.735 261.24C230.395 261.52 230.225 261.93 230.225 262.47C230.225 262.97 230.415 263.36 230.795 263.64C231.175 263.92 231.645 264.06 232.205 264.06C232.945 264.06 233.595 263.9 234.155 263.58C234.715 263.26 235.145 262.83 235.445 262.29C235.765 261.73 235.925 261.12 235.925 260.46V256.2C235.925 255.58 235.675 255.06 235.175 254.64C234.695 254.22 234.035 254.01 233.195 254.01C232.395 254.01 231.685 254.23 231.065 254.67C230.465 255.11 230.025 255.69 229.745 256.41L226.145 254.7C226.465 253.78 226.975 252.99 227.675 252.33C228.375 251.67 229.215 251.16 230.195 250.8C231.175 250.44 232.245 250.26 233.405 250.26C234.785 250.26 236.005 250.51 237.065 251.01C238.125 251.51 238.945 252.21 239.525 253.11C240.125 253.99 240.425 255.02 240.425 256.2V267H236.225V264.36L237.245 264.18C236.765 264.9 236.235 265.5 235.655 265.98C235.075 266.44 234.425 266.78 233.705 267C232.985 267.24 232.185 267.36 231.305 267.36ZM251.322 267.18C249.342 267.18 247.802 266.65 246.702 265.59C245.622 264.51 245.082 263.01 245.082 261.09V254.52H242.322V250.62H242.472C243.312 250.62 243.952 250.41 244.392 249.99C244.852 249.57 245.082 248.94 245.082 248.1V246.9H249.582V250.62H253.422V254.52H249.582V260.79C249.582 261.35 249.682 261.82 249.882 262.2C250.082 262.56 250.392 262.83 250.812 263.01C251.232 263.19 251.752 263.28 252.372 263.28C252.512 263.28 252.672 263.27 252.852 263.25C253.032 263.23 253.222 263.21 253.422 263.19V267C253.122 267.04 252.782 267.08 252.402 267.12C252.022 267.16 251.662 267.18 251.322 267.18ZM256.059 267V250.62H260.559V267H256.059ZM256.059 249.15V244.65H260.559V249.15H256.059ZM271.982 267.36C270.362 267.36 268.882 266.99 267.542 266.25C266.222 265.51 265.162 264.5 264.362 263.22C263.582 261.92 263.192 260.45 263.192 258.81C263.192 257.15 263.582 255.68 264.362 254.4C265.162 253.12 266.222 252.11 267.542 251.37C268.882 250.63 270.362 250.26 271.982 250.26C273.602 250.26 275.072 250.63 276.392 251.37C277.712 252.11 278.762 253.12 279.542 254.4C280.342 255.68 280.742 257.15 280.742 258.81C280.742 260.45 280.342 261.92 279.542 263.22C278.762 264.5 277.712 265.51 276.392 266.25C275.072 266.99 273.602 267.36 271.982 267.36ZM271.982 263.31C272.802 263.31 273.512 263.12 274.112 262.74C274.732 262.36 275.212 261.83 275.552 261.15C275.912 260.47 276.092 259.69 276.092 258.81C276.092 257.93 275.912 257.16 275.552 256.5C275.212 255.82 274.732 255.29 274.112 254.91C273.512 254.51 272.802 254.31 271.982 254.31C271.162 254.31 270.442 254.51 269.822 254.91C269.202 255.29 268.712 255.82 268.352 256.5C268.012 257.16 267.842 257.93 267.842 258.81C267.842 259.69 268.012 260.47 268.352 261.15C268.712 261.83 269.202 262.36 269.822 262.74C270.442 263.12 271.162 263.31 271.982 263.31ZM283.393 267V250.62H287.593V253.86L287.353 253.14C287.733 252.16 288.343 251.44 289.183 250.98C290.043 250.5 291.043 250.26 292.183 250.26C293.423 250.26 294.503 250.52 295.423 251.04C296.363 251.56 297.093 252.29 297.613 253.23C298.133 254.15 298.393 255.23 298.393 256.47V267H293.893V257.43C293.893 256.79 293.763 256.24 293.503 255.78C293.263 255.32 292.913 254.96 292.453 254.7C292.013 254.44 291.493 254.31 290.893 254.31C290.313 254.31 289.793 254.44 289.333 254.7C288.873 254.96 288.513 255.32 288.253 255.78C288.013 256.24 287.893 256.79 287.893 257.43V267H283.393Z" fill="#121212"/>
<path d="M167.92 172.021C203.322 172.021 232.02 143.322 232.02 107.921C232.02 72.519 203.322 43.8203 167.92 43.8203C132.518 43.8203 103.82 72.519 103.82 107.921C103.82 143.322 132.518 172.021 167.92 172.021Z" stroke="white" stroke-width="10" stroke-linecap="round" stroke-linejoin="round"/>
<path d="M142.28 120.74C142.28 120.74 151.895 133.56 167.92 133.56C183.945 133.56 193.56 120.74 193.56 120.74" stroke="white" stroke-width="10" stroke-linecap="round" stroke-linejoin="round"/>
<path d="M148.69 88.6904H148.753" stroke="white" stroke-width="10" stroke-linecap="round" stroke-linejoin="round"/>
<path d="M187.15 88.6904H187.213" stroke="white" stroke-width="10" stroke-linecap="round" stroke-linejoin="round"/>
<g filter="url(#filter2_d_1435_1885)">
<path d="M344 21C344 15.4772 348.477 11 354 11H647C652.523 11 657 15.4772 657 21V303C657 308.523 652.523 313 647 313H354C348.477 313 344 308.523 344 303V21Z" fill="white"/>
</g>
<g filter="url(#filter3_d_1435_1885)">
<rect x="344" y="11" width="313" height="193" rx="10" fill="#1E88E5"/>
</g>
<path d="M399.229 267V248.7H393.559V244.65H409.459V248.7H403.879V267H399.229ZM409.645 267V250.62H413.845V254.55L413.545 253.98C413.905 252.6 414.495 251.67 415.315 251.19C416.155 250.69 417.145 250.44 418.285 250.44H419.245V254.34H417.835C416.735 254.34 415.845 254.68 415.165 255.36C414.485 256.02 414.145 256.96 414.145 258.18V267H409.645ZM426.287 267.36C425.107 267.36 424.087 267.17 423.227 266.79C422.367 266.41 421.707 265.87 421.247 265.17C420.787 264.45 420.557 263.6 420.557 262.62C420.557 261.7 420.767 260.89 421.187 260.19C421.607 259.47 422.247 258.87 423.107 258.39C423.987 257.91 425.077 257.57 426.377 257.37L431.387 256.56V259.86L427.187 260.61C426.547 260.73 426.057 260.94 425.717 261.24C425.377 261.52 425.207 261.93 425.207 262.47C425.207 262.97 425.397 263.36 425.777 263.64C426.157 263.92 426.627 264.06 427.187 264.06C427.927 264.06 428.577 263.9 429.137 263.58C429.697 263.26 430.127 262.83 430.427 262.29C430.747 261.73 430.907 261.12 430.907 260.46V256.2C430.907 255.58 430.657 255.06 430.157 254.64C429.677 254.22 429.017 254.01 428.177 254.01C427.377 254.01 426.667 254.23 426.047 254.67C425.447 255.11 425.007 255.69 424.727 256.41L421.127 254.7C421.447 253.78 421.957 252.99 422.657 252.33C423.357 251.67 424.197 251.16 425.177 250.8C426.157 250.44 427.227 250.26 428.387 250.26C429.767 250.26 430.987 250.51 432.047 251.01C433.107 251.51 433.927 252.21 434.507 253.11C435.107 253.99 435.407 255.02 435.407 256.2V267H431.207V264.36L432.227 264.18C431.747 264.9 431.217 265.5 430.637 265.98C430.057 266.44 429.407 266.78 428.687 267C427.967 267.24 427.167 267.36 426.287 267.36ZM446.748 267.36C445.108 267.36 443.628 266.99 442.308 266.25C441.008 265.49 439.968 264.46 439.188 263.16C438.428 261.86 438.048 260.4 438.048 258.78C438.048 257.16 438.428 255.71 439.188 254.43C439.948 253.13 440.988 252.11 442.308 251.37C443.628 250.63 445.108 250.26 446.748 250.26C447.968 250.26 449.098 250.47 450.138 250.89C451.178 251.31 452.068 251.9 452.808 252.66C453.548 253.4 454.078 254.28 454.398 255.3L450.498 256.98C450.218 256.16 449.738 255.51 449.058 255.03C448.398 254.55 447.628 254.31 446.748 254.31C445.968 254.31 445.268 254.5 444.648 254.88C444.048 255.26 443.568 255.79 443.208 256.47C442.868 257.15 442.698 257.93 442.698 258.81C442.698 259.69 442.868 260.47 443.208 261.15C443.568 261.83 444.048 262.36 444.648 262.74C445.268 263.12 445.968 263.31 446.748 263.31C447.648 263.31 448.428 263.07 449.088 262.59C449.748 262.11 450.218 261.46 450.498 260.64L454.398 262.35C454.098 263.31 453.578 264.17 452.838 264.93C452.098 265.69 451.208 266.29 450.168 266.73C449.128 267.15 447.988 267.36 446.748 267.36ZM457.047 267V244.29H461.547V258.84L459.867 258.3L467.097 250.62H472.647L466.707 257.22L472.617 267H467.517L462.567 258.69L465.177 258.03L460.167 263.49L461.547 260.88V267H457.047ZM480.346 267V244.65H484.996V262.95H494.446V267H480.346ZM504.552 267.36C502.932 267.36 501.452 266.99 500.112 266.25C498.792 265.51 497.732 264.5 496.932 263.22C496.152 261.92 495.762 260.45 495.762 258.81C495.762 257.15 496.152 255.68 496.932 254.4C497.732 253.12 498.792 252.11 500.112 251.37C501.452 250.63 502.932 250.26 504.552 250.26C506.172 250.26 507.642 250.63 508.962 251.37C510.282 252.11 511.332 253.12 512.112 254.4C512.912 255.68 513.312 257.15 513.312 258.81C513.312 260.45 512.912 261.92 512.112 263.22C511.332 264.5 510.282 265.51 508.962 266.25C507.642 266.99 506.172 267.36 504.552 267.36ZM504.552 263.31C505.372 263.31 506.082 263.12 506.682 262.74C507.302 262.36 507.782 261.83 508.122 261.15C508.482 260.47 508.662 259.69 508.662 258.81C508.662 257.93 508.482 257.16 508.122 256.5C507.782 255.82 507.302 255.29 506.682 254.91C506.082 254.51 505.372 254.31 504.552 254.31C503.732 254.31 503.012 254.51 502.392 254.91C501.772 255.29 501.282 255.82 500.922 256.5C500.582 257.16 500.412 257.93 500.412 258.81C500.412 259.69 500.582 260.47 500.922 261.15C501.282 261.83 501.772 262.36 502.392 262.74C503.012 263.12 503.732 263.31 504.552 263.31ZM524.003 267.36C522.363 267.36 520.883 266.99 519.563 266.25C518.263 265.49 517.223 264.46 516.443 263.16C515.683 261.86 515.303 260.4 515.303 258.78C515.303 257.16 515.683 255.71 516.443 254.43C517.203 253.13 518.243 252.11 519.563 251.37C520.883 250.63 522.363 250.26 524.003 250.26C525.223 250.26 526.353 250.47 527.393 250.89C528.433 251.31 529.323 251.9 530.063 252.66C530.803 253.4 531.333 254.28 531.653 255.3L527.753 256.98C527.473 256.16 526.993 255.51 526.313 255.03C525.653 254.55 524.883 254.31 524.003 254.31C523.223 254.31 522.523 254.5 521.903 254.88C521.303 255.26 520.823 255.79 520.463 256.47C520.123 257.15 519.953 257.93 519.953 258.81C519.953 259.69 520.123 260.47 520.463 261.15C520.823 261.83 521.303 262.36 521.903 262.74C522.523 263.12 523.223 263.31 524.003 263.31C524.903 263.31 525.683 263.07 526.343 262.59C527.003 262.11 527.473 261.46 527.753 260.64L531.653 262.35C531.353 263.31 530.833 264.17 530.093 264.93C529.353 265.69 528.463 266.29 527.423 266.73C526.383 267.15 525.243 267.36 524.003 267.36ZM539.373 267.36C538.193 267.36 537.173 267.17 536.313 266.79C535.453 266.41 534.793 265.87 534.333 265.17C533.873 264.45 533.643 263.6 533.643 262.62C533.643 261.7 533.853 260.89 534.273 260.19C534.693 259.47 535.333 258.87 536.193 258.39C537.073 257.91 538.163 257.57 539.463 257.37L544.473 256.56V259.86L540.273 260.61C539.633 260.73 539.143 260.94 538.803 261.24C538.463 261.52 538.293 261.93 538.293 262.47C538.293 262.97 538.483 263.36 538.863 263.64C539.243 263.92 539.713 264.06 540.273 264.06C541.013 264.06 541.663 263.9 542.223 263.58C542.783 263.26 543.213 262.83 543.513 262.29C543.833 261.73 543.993 261.12 543.993 260.46V256.2C543.993 255.58 543.743 255.06 543.243 254.64C542.763 254.22 542.103 254.01 541.263 254.01C540.463 254.01 539.753 254.23 539.133 254.67C538.533 255.11 538.093 255.69 537.813 256.41L534.213 254.7C534.533 253.78 535.043 252.99 535.743 252.33C536.443 251.67 537.283 251.16 538.263 250.8C539.243 250.44 540.313 250.26 541.473 250.26C542.853 250.26 544.073 250.51 545.133 251.01C546.193 251.51 547.013 252.21 547.593 253.11C548.193 253.99 548.493 255.02 548.493 256.2V267H544.293V264.36L545.313 264.18C544.833 264.9 544.303 265.5 543.723 265.98C543.143 266.44 542.493 266.78 541.773 267C541.053 267.24 540.253 267.36 539.373 267.36ZM559.391 267.18C557.411 267.18 555.871 266.65 554.771 265.59C553.691 264.51 553.151 263.01 553.151 261.09V254.52H550.391V250.62H550.541C551.381 250.62 552.021 250.41 552.461 249.99C552.921 249.57 553.151 248.94 553.151 248.1V246.9H557.651V250.62H561.491V254.52H557.651V260.79C557.651 261.35 557.751 261.82 557.951 262.2C558.151 262.56 558.461 262.83 558.881 263.01C559.301 263.19 559.821 263.28 560.441 263.28C560.581 263.28 560.741 263.27 560.921 263.25C561.101 263.23 561.291 263.21 561.491 263.19V267C561.191 267.04 560.851 267.08 560.471 267.12C560.091 267.16 559.731 267.18 559.391 267.18ZM564.128 267V250.62H568.628V267H564.128ZM564.128 249.15V244.65H568.628V249.15H564.128ZM580.051 267.36C578.431 267.36 576.951 266.99 575.611 266.25C574.291 265.51 573.231 264.5 572.431 263.22C571.651 261.92 571.261 260.45 571.261 258.81C571.261 257.15 571.651 255.68 572.431 254.4C573.231 253.12 574.291 252.11 575.611 251.37C576.951 250.63 578.431 250.26 580.051 250.26C581.671 250.26 583.141 250.63 584.461 251.37C585.781 252.11 586.831 253.12 587.611 254.4C588.411 255.68 588.811 257.15 588.811 258.81C588.811 260.45 588.411 261.92 587.611 263.22C586.831 264.5 585.781 265.51 584.461 266.25C583.141 266.99 581.671 267.36 580.051 267.36ZM580.051 263.31C580.871 263.31 581.581 263.12 582.181 262.74C582.801 262.36 583.281 261.83 583.621 261.15C583.981 260.47 584.161 259.69 584.161 258.81C584.161 257.93 583.981 257.16 583.621 256.5C583.281 255.82 582.801 255.29 582.181 254.91C581.581 254.51 580.871 254.31 580.051 254.31C579.231 254.31 578.511 254.51 577.891 254.91C577.271 255.29 576.781 255.82 576.421 256.5C576.081 257.16 575.911 257.93 575.911 258.81C575.911 259.69 576.081 260.47 576.421 261.15C576.781 261.83 577.271 262.36 577.891 262.74C578.511 263.12 579.231 263.31 580.051 263.31ZM591.462 267V250.62H595.662V253.86L595.422 253.14C595.802 252.16 596.412 251.44 597.252 250.98C598.112 250.5 599.112 250.26 600.252 250.26C601.492 250.26 602.572 250.52 603.492 251.04C604.432 251.56 605.162 252.29 605.682 253.23C606.202 254.15 606.462 255.23 606.462 256.47V267H601.962V257.43C601.962 256.79 601.832 256.24 601.572 255.78C601.332 255.32 600.982 254.96 600.522 254.7C600.082 254.44 599.562 254.31 598.962 254.31C598.382 254.31 597.862 254.44 597.402 254.7C596.942 254.96 596.582 255.32 596.322 255.78C596.082 256.24 595.962 256.79 595.962 257.43V267H591.462Z" fill="#121212"/>
<g clip-path="url(#clip0_1435_1885)">
<path d="M544.375 97.75C544.375 131.875 500.5 161.125 500.5 161.125C500.5 161.125 456.625 131.875 456.625 97.75C456.625 86.1136 461.248 74.9538 469.476 66.7257C477.704 58.4975 488.864 53.875 500.5 53.875C512.136 53.875 523.296 58.4975 531.524 66.7257C539.752 74.9538 544.375 86.1136 544.375 97.75Z" stroke="white" stroke-width="10" stroke-linecap="round" stroke-linejoin="round"/>
<path d="M500.5 112.375C508.577 112.375 515.125 105.827 515.125 97.75C515.125 89.6728 508.577 83.125 500.5 83.125C492.423 83.125 485.875 89.6728 485.875 97.75C485.875 105.827 492.423 112.375 500.5 112.375Z" stroke="white" stroke-width="10" stroke-linecap="round" stroke-linejoin="round"/>
</g>
<g filter="url(#filter4_d_1435_1885)">
<path d="M677 21C677 15.4772 681.477 11 687 11H980C985.523 11 990 15.4772 990 21V303C990 308.523 985.523 313 980 313H687C681.477 313 677 308.523 677 303V21Z" fill="white"/>
</g>
<g filter="url(#filter5_d_1435_1885)">
<rect x="677" y="11" width="313" height="193" rx="10" fill="#1E88E5"/>
</g>
<path d="M751.31 267V244.65H759.86C761.4 244.65 762.76 244.92 763.94 245.46C765.14 246 766.08 246.8 766.76 247.86C767.44 248.92 767.78 250.23 767.78 251.79C767.78 253.31 767.43 254.61 766.73 255.69C766.03 256.75 765.09 257.55 763.91 258.09L769.01 267H763.79L758.27 257.13L761.27 258.9H755.96V267H751.31ZM755.96 254.85H759.89C760.55 254.85 761.12 254.72 761.6 254.46C762.08 254.2 762.45 253.84 762.71 253.38C762.99 252.92 763.13 252.39 763.13 251.79C763.13 251.17 762.99 250.63 762.71 250.17C762.45 249.71 762.08 249.35 761.6 249.09C761.12 248.83 760.55 248.7 759.89 248.7H755.96V254.85ZM777.972 267.36C776.232 267.36 774.722 266.98 773.442 266.22C772.162 265.44 771.172 264.4 770.472 263.1C769.772 261.8 769.422 260.36 769.422 258.78C769.422 257.14 769.782 255.68 770.502 254.4C771.242 253.12 772.232 252.11 773.472 251.37C774.712 250.63 776.112 250.26 777.672 250.26C778.972 250.26 780.122 250.47 781.122 250.89C782.122 251.29 782.962 251.86 783.642 252.6C784.342 253.34 784.872 254.2 785.232 255.18C785.592 256.14 785.772 257.19 785.772 258.33C785.772 258.65 785.752 258.97 785.712 259.29C785.692 259.59 785.642 259.85 785.562 260.07H773.292V256.77H783.012L780.882 258.33C781.082 257.47 781.072 256.71 780.852 256.05C780.632 255.37 780.242 254.84 779.682 254.46C779.142 254.06 778.472 253.86 777.672 253.86C776.892 253.86 776.222 254.05 775.662 254.43C775.102 254.81 774.682 255.37 774.402 256.11C774.122 256.85 774.012 257.75 774.072 258.81C773.992 259.73 774.102 260.54 774.402 261.24C774.702 261.94 775.162 262.49 775.782 262.89C776.402 263.27 777.152 263.46 778.032 263.46C778.832 263.46 779.512 263.3 780.072 262.98C780.652 262.66 781.102 262.22 781.422 261.66L785.022 263.37C784.702 264.17 784.192 264.87 783.492 265.47C782.812 266.07 782.002 266.54 781.062 266.88C780.122 267.2 779.092 267.36 777.972 267.36ZM796.461 267.36C794.821 267.36 793.341 266.99 792.021 266.25C790.721 265.49 789.681 264.46 788.901 263.16C788.141 261.86 787.761 260.4 787.761 258.78C787.761 257.16 788.141 255.71 788.901 254.43C789.661 253.13 790.701 252.11 792.021 251.37C793.341 250.63 794.821 250.26 796.461 250.26C797.681 250.26 798.811 250.47 799.851 250.89C800.891 251.31 801.781 251.9 802.521 252.66C803.261 253.4 803.791 254.28 804.111 255.3L800.211 256.98C799.931 256.16 799.451 255.51 798.771 255.03C798.111 254.55 797.341 254.31 796.461 254.31C795.681 254.31 794.981 254.5 794.361 254.88C793.761 255.26 793.281 255.79 792.921 256.47C792.581 257.15 792.411 257.93 792.411 258.81C792.411 259.69 792.581 260.47 792.921 261.15C793.281 261.83 793.761 262.36 794.361 262.74C794.981 263.12 795.681 263.31 796.461 263.31C797.361 263.31 798.141 263.07 798.801 262.59C799.461 262.11 799.931 261.46 800.211 260.64L804.111 262.35C803.811 263.31 803.291 264.17 802.551 264.93C801.811 265.69 800.921 266.29 799.881 266.73C798.841 267.15 797.701 267.36 796.461 267.36ZM811.831 267.36C810.651 267.36 809.631 267.17 808.771 266.79C807.911 266.41 807.251 265.87 806.791 265.17C806.331 264.45 806.101 263.6 806.101 262.62C806.101 261.7 806.311 260.89 806.731 260.19C807.151 259.47 807.791 258.87 808.651 258.39C809.531 257.91 810.621 257.57 811.921 257.37L816.931 256.56V259.86L812.731 260.61C812.091 260.73 811.601 260.94 811.261 261.24C810.921 261.52 810.751 261.93 810.751 262.47C810.751 262.97 810.941 263.36 811.321 263.64C811.701 263.92 812.171 264.06 812.731 264.06C813.471 264.06 814.121 263.9 814.681 263.58C815.241 263.26 815.671 262.83 815.971 262.29C816.291 261.73 816.451 261.12 816.451 260.46V256.2C816.451 255.58 816.201 255.06 815.701 254.64C815.221 254.22 814.561 254.01 813.721 254.01C812.921 254.01 812.211 254.23 811.591 254.67C810.991 255.11 810.551 255.69 810.271 256.41L806.671 254.7C806.991 253.78 807.501 252.99 808.201 252.33C808.901 251.67 809.741 251.16 810.721 250.8C811.701 250.44 812.771 250.26 813.931 250.26C815.311 250.26 816.531 250.51 817.591 251.01C818.651 251.51 819.471 252.21 820.051 253.11C820.651 253.99 820.951 255.02 820.951 256.2V267H816.751V264.36L817.771 264.18C817.291 264.9 816.761 265.5 816.181 265.98C815.601 266.44 814.951 266.78 814.231 267C813.511 267.24 812.711 267.36 811.831 267.36ZM824.252 273V250.62H828.452V253.74L828.062 252.84C828.602 252.02 829.332 251.39 830.252 250.95C831.192 250.49 832.262 250.26 833.462 250.26C835.022 250.26 836.432 250.64 837.692 251.4C838.952 252.16 839.952 253.19 840.692 254.49C841.432 255.77 841.802 257.21 841.802 258.81C841.802 260.39 841.432 261.83 840.692 263.13C839.972 264.43 838.982 265.46 837.722 266.22C836.462 266.98 835.032 267.36 833.432 267.36C832.312 267.36 831.272 267.16 830.312 266.76C829.372 266.34 828.612 265.73 828.032 264.93L828.752 264V273H824.252ZM832.892 263.31C833.732 263.31 834.472 263.12 835.112 262.74C835.752 262.36 836.252 261.83 836.612 261.15C836.972 260.47 837.152 259.69 837.152 258.81C837.152 257.93 836.972 257.16 836.612 256.5C836.252 255.82 835.752 255.29 835.112 254.91C834.472 254.51 833.732 254.31 832.892 254.31C832.092 254.31 831.372 254.5 830.732 254.88C830.112 255.26 829.622 255.79 829.262 256.47C828.922 257.15 828.752 257.93 828.752 258.81C828.752 259.69 828.922 260.47 829.262 261.15C829.622 261.83 830.112 262.36 830.732 262.74C831.372 263.12 832.092 263.31 832.892 263.31ZM850.158 267V244.65H857.448C859.868 244.65 861.968 245.13 863.748 246.09C865.528 247.05 866.908 248.37 867.888 250.05C868.868 251.73 869.358 253.65 869.358 255.81C869.358 257.97 868.868 259.9 867.888 261.6C866.908 263.28 865.528 264.6 863.748 265.56C861.968 266.52 859.868 267 857.448 267H850.158ZM854.808 262.95H857.568C859.028 262.95 860.288 262.66 861.348 262.08C862.408 261.48 863.228 260.65 863.808 259.59C864.408 258.51 864.708 257.25 864.708 255.81C864.708 254.35 864.408 253.09 863.808 252.03C863.228 250.97 862.408 250.15 861.348 249.57C860.288 248.99 859.028 248.7 857.568 248.7H854.808V262.95ZM877.075 267.36C875.895 267.36 874.875 267.17 874.015 266.79C873.155 266.41 872.495 265.87 872.035 265.17C871.575 264.45 871.345 263.6 871.345 262.62C871.345 261.7 871.555 260.89 871.975 260.19C872.395 259.47 873.035 258.87 873.895 258.39C874.775 257.91 875.865 257.57 877.165 257.37L882.175 256.56V259.86L877.975 260.61C877.335 260.73 876.845 260.94 876.505 261.24C876.165 261.52 875.995 261.93 875.995 262.47C875.995 262.97 876.185 263.36 876.565 263.64C876.945 263.92 877.415 264.06 877.975 264.06C878.715 264.06 879.365 263.9 879.925 263.58C880.485 263.26 880.915 262.83 881.215 262.29C881.535 261.73 881.695 261.12 881.695 260.46V256.2C881.695 255.58 881.445 255.06 880.945 254.64C880.465 254.22 879.805 254.01 878.965 254.01C878.165 254.01 877.455 254.23 876.835 254.67C876.235 255.11 875.795 255.69 875.515 256.41L871.915 254.7C872.235 253.78 872.745 252.99 873.445 252.33C874.145 251.67 874.985 251.16 875.965 250.8C876.945 250.44 878.015 250.26 879.175 250.26C880.555 250.26 881.775 250.51 882.835 251.01C883.895 251.51 884.715 252.21 885.295 253.11C885.895 253.99 886.195 255.02 886.195 256.2V267H881.995V264.36L883.015 264.18C882.535 264.9 882.005 265.5 881.425 265.98C880.845 266.44 880.195 266.78 879.475 267C878.755 267.24 877.955 267.36 877.075 267.36ZM897.093 267.18C895.113 267.18 893.573 266.65 892.473 265.59C891.393 264.51 890.853 263.01 890.853 261.09V254.52H888.093V250.62H888.243C889.083 250.62 889.723 250.41 890.163 249.99C890.623 249.57 890.853 248.94 890.853 248.1V246.9H895.353V250.62H899.193V254.52H895.353V260.79C895.353 261.35 895.453 261.82 895.653 262.2C895.853 262.56 896.163 262.83 896.583 263.01C897.003 263.19 897.523 263.28 898.143 263.28C898.283 263.28 898.443 263.27 898.623 263.25C898.803 263.23 898.993 263.21 899.193 263.19V267C898.893 267.04 898.553 267.08 898.173 267.12C897.793 267.16 897.433 267.18 897.093 267.18ZM906.9 267.36C905.72 267.36 904.7 267.17 903.84 266.79C902.98 266.41 902.32 265.87 901.86 265.17C901.4 264.45 901.17 263.6 901.17 262.62C901.17 261.7 901.38 260.89 901.8 260.19C902.22 259.47 902.86 258.87 903.72 258.39C904.6 257.91 905.69 257.57 906.99 257.37L912 256.56V259.86L907.8 260.61C907.16 260.73 906.67 260.94 906.33 261.24C905.99 261.52 905.82 261.93 905.82 262.47C905.82 262.97 906.01 263.36 906.39 263.64C906.77 263.92 907.24 264.06 907.8 264.06C908.54 264.06 909.19 263.9 909.75 263.58C910.31 263.26 910.74 262.83 911.04 262.29C911.36 261.73 911.52 261.12 911.52 260.46V256.2C911.52 255.58 911.27 255.06 910.77 254.64C910.29 254.22 909.63 254.01 908.79 254.01C907.99 254.01 907.28 254.23 906.66 254.67C906.06 255.11 905.62 255.69 905.34 256.41L901.74 254.7C902.06 253.78 902.57 252.99 903.27 252.33C903.97 251.67 904.81 251.16 905.79 250.8C906.77 250.44 907.84 250.26 909 250.26C910.38 250.26 911.6 250.51 912.66 251.01C913.72 251.51 914.54 252.21 915.12 253.11C915.72 253.99 916.02 255.02 916.02 256.2V267H911.82V264.36L912.84 264.18C912.36 264.9 911.83 265.5 911.25 265.98C910.67 266.44 910.02 266.78 909.3 267C908.58 267.24 907.78 267.36 906.9 267.36Z" fill="#121212"/>
<path d="M799.312 294V282.825H806.212V283.95H800.512V287.835H805.762V288.96H800.512V294H799.312ZM811.335 294.18C810.575 294.18 809.885 294 809.265 293.64C808.645 293.27 808.15 292.77 807.78 292.14C807.42 291.5 807.24 290.775 807.24 289.965C807.24 289.165 807.42 288.45 807.78 287.82C808.14 287.19 808.625 286.695 809.235 286.335C809.855 285.965 810.555 285.78 811.335 285.78C812.115 285.78 812.81 285.96 813.42 286.32C814.04 286.68 814.525 287.175 814.875 287.805C815.235 288.435 815.415 289.155 815.415 289.965C815.415 290.785 815.23 291.515 814.86 292.155C814.49 292.785 813.995 293.28 813.375 293.64C812.765 294 812.085 294.18 811.335 294.18ZM811.335 293.055C811.875 293.055 812.36 292.92 812.79 292.65C813.23 292.38 813.575 292.01 813.825 291.54C814.085 291.07 814.215 290.545 814.215 289.965C814.215 289.385 814.085 288.865 813.825 288.405C813.575 287.945 813.23 287.58 812.79 287.31C812.36 287.04 811.875 286.905 811.335 286.905C810.795 286.905 810.305 287.04 809.865 287.31C809.435 287.58 809.09 287.945 808.83 288.405C808.57 288.865 808.44 289.385 808.44 289.965C808.44 290.545 808.57 291.07 808.83 291.54C809.09 292.01 809.435 292.38 809.865 292.65C810.305 292.92 810.795 293.055 811.335 293.055ZM817.399 294V285.96H818.524V287.28L818.374 287.085C818.564 286.705 818.849 286.405 819.229 286.185C819.619 285.965 820.089 285.855 820.639 285.855H821.149V286.98H820.444C819.864 286.98 819.399 287.16 819.049 287.52C818.699 287.88 818.524 288.39 818.524 289.05V294H817.399ZM824.026 294L828.106 282.825H829.396L833.476 294H832.216L831.256 291.27H826.261L825.286 294H824.026ZM826.651 290.145H830.836L828.571 283.725H828.931L826.651 290.145ZM838.139 294.18C837.389 294.18 836.714 294 836.114 293.64C835.514 293.27 835.039 292.77 834.689 292.14C834.349 291.5 834.179 290.78 834.179 289.98C834.179 289.17 834.349 288.45 834.689 287.82C835.039 287.19 835.509 286.695 836.099 286.335C836.699 285.965 837.379 285.78 838.139 285.78C838.829 285.78 839.444 285.93 839.984 286.23C840.524 286.53 840.949 286.935 841.259 287.445L841.079 287.76V282.645H842.204V294H841.079V292.2L841.259 292.365C840.979 292.945 840.559 293.395 839.999 293.715C839.449 294.025 838.829 294.18 838.139 294.18ZM838.199 293.055C838.739 293.055 839.224 292.92 839.654 292.65C840.094 292.38 840.439 292.015 840.689 291.555C840.949 291.085 841.079 290.56 841.079 289.98C841.079 289.4 840.949 288.88 840.689 288.42C840.439 287.95 840.094 287.58 839.654 287.31C839.224 287.04 838.739 286.905 838.199 286.905C837.669 286.905 837.189 287.04 836.759 287.31C836.329 287.58 835.989 287.945 835.739 288.405C835.499 288.865 835.379 289.39 835.379 289.98C835.379 290.56 835.499 291.085 835.739 291.555C835.989 292.015 836.324 292.38 836.744 292.65C837.174 292.92 837.659 293.055 838.199 293.055ZM844.513 294V285.96H845.638V287.49L845.458 287.265C845.678 286.795 846.003 286.43 846.433 286.17C846.873 285.91 847.353 285.78 847.873 285.78C848.493 285.78 849.053 285.955 849.553 286.305C850.053 286.655 850.408 287.11 850.618 287.67L850.303 287.685C850.503 287.065 850.848 286.595 851.338 286.275C851.838 285.945 852.388 285.78 852.988 285.78C853.528 285.78 854.023 285.91 854.473 286.17C854.933 286.43 855.298 286.79 855.568 287.25C855.848 287.7 855.988 288.21 855.988 288.78V294H854.863V289.215C854.863 288.725 854.773 288.31 854.593 287.97C854.423 287.63 854.188 287.37 853.888 287.19C853.588 287 853.243 286.905 852.853 286.905C852.473 286.905 852.128 287 851.818 287.19C851.508 287.37 851.263 287.635 851.083 287.985C850.903 288.325 850.813 288.735 850.813 289.215V294H849.688V289.215C849.688 288.725 849.598 288.31 849.418 287.97C849.248 287.63 849.013 287.37 848.713 287.19C848.413 287 848.068 286.905 847.678 286.905C847.288 286.905 846.938 287 846.628 287.19C846.328 287.37 846.088 287.635 845.908 287.985C845.728 288.325 845.638 288.735 845.638 289.215V294H844.513ZM858.136 294V285.96H859.261V294H858.136ZM858.136 284.475V282.825H859.261V284.475H858.136ZM861.564 294V285.96H862.689V287.52L862.434 287.46C862.634 286.94 862.959 286.53 863.409 286.23C863.869 285.93 864.399 285.78 864.999 285.78C865.569 285.78 866.079 285.91 866.529 286.17C866.989 286.43 867.349 286.79 867.609 287.25C867.879 287.7 868.014 288.21 868.014 288.78V294H866.889V289.215C866.889 288.725 866.799 288.31 866.619 287.97C866.449 287.63 866.204 287.37 865.884 287.19C865.574 287 865.214 286.905 864.804 286.905C864.394 286.905 864.029 287 863.709 287.19C863.389 287.37 863.139 287.635 862.959 287.985C862.779 288.325 862.689 288.735 862.689 289.215V294H861.564Z" fill="#121212"/>
<path d="M846.74 43.8203H795.46C792.06 43.8203 788.799 45.171 786.395 47.5752C783.991 49.9794 782.64 53.2402 782.64 56.6403V159.2C782.64 162.6 783.991 165.861 786.395 168.265C788.799 170.67 792.06 172.02 795.46 172.02H872.38C875.78 172.02 879.041 170.67 881.445 168.265C883.849 165.861 885.2 162.6 885.2 159.2V82.2803L846.74 43.8203Z" stroke="white" stroke-width="10" stroke-linecap="round" stroke-linejoin="round"/>
<path d="M846.74 43.8203V82.2803H885.2" stroke="white" stroke-width="10" stroke-linecap="round" stroke-linejoin="round"/>
<path d="M859.56 114.33H808.28" stroke="white" stroke-width="10" stroke-linecap="round" stroke-linejoin="round"/>
<path d="M859.56 139.97H808.28" stroke="white" stroke-width="10" stroke-linecap="round" stroke-linejoin="round"/>
<path d="M821.1 88.6904H814.69H808.28" stroke="white" stroke-width="10" stroke-linecap="round" stroke-linejoin="round"/>
<g filter="url(#filter6_d_1435_1885)">
<path d="M1010 21C1010 15.4772 1014.48 11 1020 11H1313C1318.52 11 1323 15.4772 1323 21V303C1323 308.523 1318.52 313 1313 313H1020C1014.48 313 1010 308.523 1010 303V21Z" fill="white"/>
</g>
<g filter="url(#filter7_d_1435_1885)">
<rect x="1010" y="11" width="313" height="193" rx="10" fill="#1E88E5"/>
</g>
<path d="M1043.69 267.36C1041.93 267.36 1040.36 266.99 1038.98 266.25C1037.6 265.51 1036.51 264.5 1035.71 263.22C1034.93 261.92 1034.54 260.45 1034.54 258.81V244.65H1039.19V258.51C1039.19 259.39 1039.38 260.19 1039.76 260.91C1040.16 261.61 1040.7 262.16 1041.38 262.56C1042.06 262.96 1042.83 263.16 1043.69 263.16C1044.57 263.16 1045.34 262.96 1046 262.56C1046.68 262.16 1047.21 261.61 1047.59 260.91C1047.99 260.19 1048.19 259.39 1048.19 258.51V244.65H1052.84V258.81C1052.84 260.45 1052.44 261.92 1051.64 263.22C1050.86 264.5 1049.78 265.51 1048.4 266.25C1047.02 266.99 1045.45 267.36 1043.69 267.36ZM1062.61 267.36C1060.81 267.36 1059.24 266.94 1057.9 266.1C1056.58 265.24 1055.68 264.09 1055.2 262.65L1058.5 261.09C1058.92 261.97 1059.49 262.66 1060.21 263.16C1060.93 263.66 1061.73 263.91 1062.61 263.91C1063.25 263.91 1063.74 263.78 1064.08 263.52C1064.42 263.26 1064.59 262.9 1064.59 262.44C1064.59 262.2 1064.53 262 1064.41 261.84C1064.29 261.66 1064.11 261.5 1063.87 261.36C1063.63 261.22 1063.33 261.1 1062.97 261L1060.18 260.22C1058.84 259.84 1057.81 259.23 1057.09 258.39C1056.37 257.53 1056.01 256.52 1056.01 255.36C1056.01 254.34 1056.27 253.45 1056.79 252.69C1057.31 251.93 1058.04 251.34 1058.98 250.92C1059.92 250.48 1061 250.26 1062.22 250.26C1063.82 250.26 1065.22 250.64 1066.42 251.4C1067.64 252.14 1068.5 253.19 1069 254.55L1065.67 256.11C1065.43 255.43 1064.99 254.89 1064.35 254.49C1063.73 254.07 1063.02 253.86 1062.22 253.86C1061.64 253.86 1061.18 253.98 1060.84 254.22C1060.52 254.46 1060.36 254.79 1060.36 255.21C1060.36 255.43 1060.42 255.63 1060.54 255.81C1060.66 255.99 1060.85 256.15 1061.11 256.29C1061.39 256.43 1061.73 256.56 1062.13 256.68L1064.74 257.46C1066.1 257.86 1067.14 258.47 1067.86 259.29C1068.58 260.09 1068.94 261.08 1068.94 262.26C1068.94 263.28 1068.67 264.17 1068.13 264.93C1067.61 265.69 1066.88 266.29 1065.94 266.73C1065 267.15 1063.89 267.36 1062.61 267.36ZM1079.52 267.36C1077.78 267.36 1076.27 266.98 1074.99 266.22C1073.71 265.44 1072.72 264.4 1072.02 263.1C1071.32 261.8 1070.97 260.36 1070.97 258.78C1070.97 257.14 1071.33 255.68 1072.05 254.4C1072.79 253.12 1073.78 252.11 1075.02 251.37C1076.26 250.63 1077.66 250.26 1079.22 250.26C1080.52 250.26 1081.67 250.47 1082.67 250.89C1083.67 251.29 1084.51 251.86 1085.19 252.6C1085.89 253.34 1086.42 254.2 1086.78 255.18C1087.14 256.14 1087.32 257.19 1087.32 258.33C1087.32 258.65 1087.3 258.97 1087.26 259.29C1087.24 259.59 1087.19 259.85 1087.11 260.07H1074.84V256.77H1084.56L1082.43 258.33C1082.63 257.47 1082.62 256.71 1082.4 256.05C1082.18 255.37 1081.79 254.84 1081.23 254.46C1080.69 254.06 1080.02 253.86 1079.22 253.86C1078.44 253.86 1077.77 254.05 1077.21 254.43C1076.65 254.81 1076.23 255.37 1075.95 256.11C1075.67 256.85 1075.56 257.75 1075.62 258.81C1075.54 259.73 1075.65 260.54 1075.95 261.24C1076.25 261.94 1076.71 262.49 1077.33 262.89C1077.95 263.27 1078.7 263.46 1079.58 263.46C1080.38 263.46 1081.06 263.3 1081.62 262.98C1082.2 262.66 1082.65 262.22 1082.97 261.66L1086.57 263.37C1086.25 264.17 1085.74 264.87 1085.04 265.47C1084.36 266.07 1083.55 266.54 1082.61 266.88C1081.67 267.2 1080.64 267.36 1079.52 267.36ZM1089.97 267V250.62H1094.17V254.55L1093.87 253.98C1094.23 252.6 1094.82 251.67 1095.64 251.19C1096.48 250.69 1097.47 250.44 1098.61 250.44H1099.57V254.34H1098.16C1097.06 254.34 1096.17 254.68 1095.49 255.36C1094.81 256.02 1094.47 256.96 1094.47 258.18V267H1089.97ZM1107.26 267V244.65H1111.76L1120.13 255.75H1118.03L1126.16 244.65H1130.66V267H1126.01V249.78L1127.87 250.2L1119.26 261.3H1118.66L1110.35 250.2L1111.91 249.78V267H1107.26ZM1139.37 267.36C1138.19 267.36 1137.17 267.17 1136.31 266.79C1135.45 266.41 1134.79 265.87 1134.33 265.17C1133.87 264.45 1133.64 263.6 1133.64 262.62C1133.64 261.7 1133.85 260.89 1134.27 260.19C1134.69 259.47 1135.33 258.87 1136.19 258.39C1137.07 257.91 1138.16 257.57 1139.46 257.37L1144.47 256.56V259.86L1140.27 260.61C1139.63 260.73 1139.14 260.94 1138.8 261.24C1138.46 261.52 1138.29 261.93 1138.29 262.47C1138.29 262.97 1138.48 263.36 1138.86 263.64C1139.24 263.92 1139.71 264.06 1140.27 264.06C1141.01 264.06 1141.66 263.9 1142.22 263.58C1142.78 263.26 1143.21 262.83 1143.51 262.29C1143.83 261.73 1143.99 261.12 1143.99 260.46V256.2C1143.99 255.58 1143.74 255.06 1143.24 254.64C1142.76 254.22 1142.1 254.01 1141.26 254.01C1140.46 254.01 1139.75 254.23 1139.13 254.67C1138.53 255.11 1138.09 255.69 1137.81 256.41L1134.21 254.7C1134.53 253.78 1135.04 252.99 1135.74 252.33C1136.44 251.67 1137.28 251.16 1138.26 250.8C1139.24 250.44 1140.31 250.26 1141.47 250.26C1142.85 250.26 1144.07 250.51 1145.13 251.01C1146.19 251.51 1147.01 252.21 1147.59 253.11C1148.19 253.99 1148.49 255.02 1148.49 256.2V267H1144.29V264.36L1145.31 264.18C1144.83 264.9 1144.3 265.5 1143.72 265.98C1143.14 266.44 1142.49 266.78 1141.77 267C1141.05 267.24 1140.25 267.36 1139.37 267.36ZM1151.79 267V250.62H1155.99V253.86L1155.75 253.14C1156.13 252.16 1156.74 251.44 1157.58 250.98C1158.44 250.5 1159.44 250.26 1160.58 250.26C1161.82 250.26 1162.9 250.52 1163.82 251.04C1164.76 251.56 1165.49 252.29 1166.01 253.23C1166.53 254.15 1166.79 255.23 1166.79 256.47V267H1162.29V257.43C1162.29 256.79 1162.16 256.24 1161.9 255.78C1161.66 255.32 1161.31 254.96 1160.85 254.7C1160.41 254.44 1159.89 254.31 1159.29 254.31C1158.71 254.31 1158.19 254.44 1157.73 254.7C1157.27 254.96 1156.91 255.32 1156.65 255.78C1156.41 256.24 1156.29 256.79 1156.29 257.43V267H1151.79ZM1174.82 267.36C1173.64 267.36 1172.62 267.17 1171.76 266.79C1170.9 266.41 1170.24 265.87 1169.78 265.17C1169.32 264.45 1169.09 263.6 1169.09 262.62C1169.09 261.7 1169.3 260.89 1169.72 260.19C1170.14 259.47 1170.78 258.87 1171.64 258.39C1172.52 257.91 1173.61 257.57 1174.91 257.37L1179.92 256.56V259.86L1175.72 260.61C1175.08 260.73 1174.59 260.94 1174.25 261.24C1173.91 261.52 1173.74 261.93 1173.74 262.47C1173.74 262.97 1173.93 263.36 1174.31 263.64C1174.69 263.92 1175.16 264.06 1175.72 264.06C1176.46 264.06 1177.11 263.9 1177.67 263.58C1178.23 263.26 1178.66 262.83 1178.96 262.29C1179.28 261.73 1179.44 261.12 1179.44 260.46V256.2C1179.44 255.58 1179.19 255.06 1178.69 254.64C1178.21 254.22 1177.55 254.01 1176.71 254.01C1175.91 254.01 1175.2 254.23 1174.58 254.67C1173.98 255.11 1173.54 255.69 1173.26 256.41L1169.66 254.7C1169.98 253.78 1170.49 252.99 1171.19 252.33C1171.89 251.67 1172.73 251.16 1173.71 250.8C1174.69 250.44 1175.76 250.26 1176.92 250.26C1178.3 250.26 1179.52 250.51 1180.58 251.01C1181.64 251.51 1182.46 252.21 1183.04 253.11C1183.64 253.99 1183.94 255.02 1183.94 256.2V267H1179.74V264.36L1180.76 264.18C1180.28 264.9 1179.75 265.5 1179.17 265.98C1178.59 266.44 1177.94 266.78 1177.22 267C1176.5 267.24 1175.7 267.36 1174.82 267.36ZM1195.28 273.6C1194.02 273.6 1192.85 273.39 1191.77 272.97C1190.69 272.55 1189.76 271.96 1188.98 271.2C1188.22 270.46 1187.67 269.58 1187.33 268.56L1191.5 267.09C1191.72 267.85 1192.17 268.45 1192.85 268.89C1193.53 269.33 1194.34 269.55 1195.28 269.55C1196.02 269.55 1196.66 269.41 1197.2 269.13C1197.74 268.87 1198.15 268.48 1198.43 267.96C1198.73 267.44 1198.88 266.83 1198.88 266.13V262.38L1199.75 263.46C1199.19 264.38 1198.47 265.07 1197.59 265.53C1196.71 265.97 1195.68 266.19 1194.5 266.19C1192.98 266.19 1191.62 265.85 1190.42 265.17C1189.22 264.47 1188.28 263.52 1187.6 262.32C1186.92 261.1 1186.58 259.72 1186.58 258.18C1186.58 256.64 1186.92 255.28 1187.6 254.1C1188.28 252.9 1189.21 251.96 1190.39 251.28C1191.57 250.6 1192.91 250.26 1194.41 250.26C1195.59 250.26 1196.62 250.5 1197.5 250.98C1198.38 251.44 1199.13 252.15 1199.75 253.11L1199.18 254.19V250.62H1203.38V266.13C1203.38 267.57 1203.03 268.85 1202.33 269.97C1201.63 271.11 1200.67 272 1199.45 272.64C1198.25 273.28 1196.86 273.6 1195.28 273.6ZM1195.13 262.11C1195.89 262.11 1196.55 261.95 1197.11 261.63C1197.67 261.31 1198.1 260.86 1198.4 260.28C1198.72 259.7 1198.88 259.02 1198.88 258.24C1198.88 257.46 1198.72 256.78 1198.4 256.2C1198.08 255.6 1197.64 255.14 1197.08 254.82C1196.52 254.48 1195.87 254.31 1195.13 254.31C1194.37 254.31 1193.69 254.48 1193.09 254.82C1192.51 255.14 1192.05 255.6 1191.71 256.2C1191.39 256.78 1191.23 257.46 1191.23 258.24C1191.23 259 1191.39 259.67 1191.71 260.25C1192.05 260.83 1192.51 261.29 1193.09 261.63C1193.69 261.95 1194.37 262.11 1195.13 262.11ZM1214.58 267.36C1212.84 267.36 1211.33 266.98 1210.05 266.22C1208.77 265.44 1207.78 264.4 1207.08 263.1C1206.38 261.8 1206.03 260.36 1206.03 258.78C1206.03 257.14 1206.39 255.68 1207.11 254.4C1207.85 253.12 1208.84 252.11 1210.08 251.37C1211.32 250.63 1212.72 250.26 1214.28 250.26C1215.58 250.26 1216.73 250.47 1217.73 250.89C1218.73 251.29 1219.57 251.86 1220.25 252.6C1220.95 253.34 1221.48 254.2 1221.84 255.18C1222.2 256.14 1222.38 257.19 1222.38 258.33C1222.38 258.65 1222.36 258.97 1222.32 259.29C1222.3 259.59 1222.25 259.85 1222.17 260.07H1209.9V256.77H1219.62L1217.49 258.33C1217.69 257.47 1217.68 256.71 1217.46 256.05C1217.24 255.37 1216.85 254.84 1216.29 254.46C1215.75 254.06 1215.08 253.86 1214.28 253.86C1213.5 253.86 1212.83 254.05 1212.27 254.43C1211.71 254.81 1211.29 255.37 1211.01 256.11C1210.73 256.85 1210.62 257.75 1210.68 258.81C1210.6 259.73 1210.71 260.54 1211.01 261.24C1211.31 261.94 1211.77 262.49 1212.39 262.89C1213.01 263.27 1213.76 263.46 1214.64 263.46C1215.44 263.46 1216.12 263.3 1216.68 262.98C1217.26 262.66 1217.71 262.22 1218.03 261.66L1221.63 263.37C1221.31 264.17 1220.8 264.87 1220.1 265.47C1219.42 266.07 1218.61 266.54 1217.67 266.88C1216.73 267.2 1215.7 267.36 1214.58 267.36ZM1225.03 267V250.62H1229.23V254.61L1228.78 253.95C1229.02 252.69 1229.6 251.76 1230.52 251.16C1231.44 250.56 1232.54 250.26 1233.82 250.26C1235.18 250.26 1236.37 250.61 1237.39 251.31C1238.43 251.99 1239.08 252.91 1239.34 254.07L1238.05 254.19C1238.59 252.85 1239.36 251.86 1240.36 251.22C1241.36 250.58 1242.53 250.26 1243.87 250.26C1245.05 250.26 1246.09 250.52 1246.99 251.04C1247.91 251.56 1248.63 252.29 1249.15 253.23C1249.67 254.15 1249.93 255.23 1249.93 256.47V267H1245.43V257.43C1245.43 256.79 1245.31 256.24 1245.07 255.78C1244.85 255.32 1244.53 254.96 1244.11 254.7C1243.69 254.44 1243.18 254.31 1242.58 254.31C1242 254.31 1241.49 254.44 1241.05 254.7C1240.63 254.96 1240.3 255.32 1240.06 255.78C1239.84 256.24 1239.73 256.79 1239.73 257.43V267H1235.23V257.43C1235.23 256.79 1235.11 256.24 1234.87 255.78C1234.65 255.32 1234.33 254.96 1233.91 254.7C1233.49 254.44 1232.98 254.31 1232.38 254.31C1231.8 254.31 1231.29 254.44 1230.85 254.7C1230.43 254.96 1230.1 255.32 1229.86 255.78C1229.64 256.24 1229.53 256.79 1229.53 257.43V267H1225.03ZM1260.78 267.36C1259.04 267.36 1257.53 266.98 1256.25 266.22C1254.97 265.44 1253.98 264.4 1253.28 263.1C1252.58 261.8 1252.23 260.36 1252.23 258.78C1252.23 257.14 1252.59 255.68 1253.31 254.4C1254.05 253.12 1255.04 252.11 1256.28 251.37C1257.52 250.63 1258.92 250.26 1260.48 250.26C1261.78 250.26 1262.93 250.47 1263.93 250.89C1264.93 251.29 1265.77 251.86 1266.45 252.6C1267.15 253.34 1267.68 254.2 1268.04 255.18C1268.4 256.14 1268.58 257.19 1268.58 258.33C1268.58 258.65 1268.56 258.97 1268.52 259.29C1268.5 259.59 1268.45 259.85 1268.37 260.07H1256.1V256.77H1265.82L1263.69 258.33C1263.89 257.47 1263.88 256.71 1263.66 256.05C1263.44 255.37 1263.05 254.84 1262.49 254.46C1261.95 254.06 1261.28 253.86 1260.48 253.86C1259.7 253.86 1259.03 254.05 1258.47 254.43C1257.91 254.81 1257.49 255.37 1257.21 256.11C1256.93 256.85 1256.82 257.75 1256.88 258.81C1256.8 259.73 1256.91 260.54 1257.21 261.24C1257.51 261.94 1257.97 262.49 1258.59 262.89C1259.21 263.27 1259.96 263.46 1260.84 263.46C1261.64 263.46 1262.32 263.3 1262.88 262.98C1263.46 262.66 1263.91 262.22 1264.23 261.66L1267.83 263.37C1267.51 264.17 1267 264.87 1266.3 265.47C1265.62 266.07 1264.81 266.54 1263.87 266.88C1262.93 267.2 1261.9 267.36 1260.78 267.36ZM1271.23 267V250.62H1275.43V253.86L1275.19 253.14C1275.57 252.16 1276.18 251.44 1277.02 250.98C1277.88 250.5 1278.88 250.26 1280.02 250.26C1281.26 250.26 1282.34 250.52 1283.26 251.04C1284.2 251.56 1284.93 252.29 1285.45 253.23C1285.97 254.15 1286.23 255.23 1286.23 256.47V267H1281.73V257.43C1281.73 256.79 1281.6 256.24 1281.34 255.78C1281.1 255.32 1280.75 254.96 1280.29 254.7C1279.85 254.44 1279.33 254.31 1278.73 254.31C1278.15 254.31 1277.63 254.44 1277.17 254.7C1276.71 254.96 1276.35 255.32 1276.09 255.78C1275.85 256.24 1275.73 256.79 1275.73 257.43V267H1271.23ZM1297.08 267.18C1295.1 267.18 1293.56 266.65 1292.46 265.59C1291.38 264.51 1290.84 263.01 1290.84 261.09V254.52H1288.08V250.62H1288.23C1289.07 250.62 1289.71 250.41 1290.15 249.99C1290.61 249.57 1290.84 248.94 1290.84 248.1V246.9H1295.34V250.62H1299.18V254.52H1295.34V260.79C1295.34 261.35 1295.44 261.82 1295.64 262.2C1295.84 262.56 1296.15 262.83 1296.57 263.01C1296.99 263.19 1297.51 263.28 1298.13 263.28C1298.27 263.28 1298.43 263.27 1298.61 263.25C1298.79 263.23 1298.98 263.21 1299.18 263.19V267C1298.88 267.04 1298.54 267.08 1298.16 267.12C1297.78 267.16 1297.42 267.18 1297.08 267.18Z" fill="#121212"/>
<path d="M1198.97 165.61V152.79C1198.97 145.99 1196.27 139.469 1191.46 134.66C1186.65 129.852 1180.13 127.15 1173.33 127.15H1122.05C1115.25 127.15 1108.73 129.852 1103.92 134.66C1099.11 139.469 1096.41 145.99 1096.41 152.79V165.61" stroke="white" stroke-width="10" stroke-linecap="round" stroke-linejoin="round"/>
<path d="M1147.69 101.51C1161.85 101.51 1173.33 90.031 1173.33 75.8705C1173.33 61.7099 1161.85 50.2305 1147.69 50.2305C1133.53 50.2305 1122.05 61.7099 1122.05 75.8705C1122.05 90.031 1133.53 101.51 1147.69 101.51Z" stroke="white" stroke-width="10" stroke-linecap="round" stroke-linejoin="round"/>
<path d="M1237.43 165.61V152.79C1237.43 147.109 1235.54 141.59 1232.05 137.1C1228.57 132.611 1223.7 129.404 1218.2 127.983" stroke="white" stroke-width="10" stroke-linecap="round" stroke-linejoin="round"/>
<path d="M1192.56 51.0635C1198.08 52.4756 1202.96 55.6832 1206.45 60.1805C1209.95 64.6778 1211.84 70.2091 1211.84 75.9022C1211.84 81.5954 1209.95 87.1266 1206.45 91.624C1202.96 96.1213 1198.08 99.3288 1192.56 100.741" stroke="white" stroke-width="10" stroke-linecap="round" stroke-linejoin="round"/>
<path d="M1132.31 294V282.825H1139.21V283.95H1133.51V287.835H1138.76V288.96H1133.51V294H1132.31ZM1144.34 294.18C1143.58 294.18 1142.89 294 1142.27 293.64C1141.65 293.27 1141.15 292.77 1140.78 292.14C1140.42 291.5 1140.24 290.775 1140.24 289.965C1140.24 289.165 1140.42 288.45 1140.78 287.82C1141.14 287.19 1141.63 286.695 1142.24 286.335C1142.86 285.965 1143.56 285.78 1144.34 285.78C1145.12 285.78 1145.81 285.96 1146.42 286.32C1147.04 286.68 1147.53 287.175 1147.88 287.805C1148.24 288.435 1148.42 289.155 1148.42 289.965C1148.42 290.785 1148.23 291.515 1147.86 292.155C1147.49 292.785 1147 293.28 1146.38 293.64C1145.77 294 1145.09 294.18 1144.34 294.18ZM1144.34 293.055C1144.88 293.055 1145.36 292.92 1145.79 292.65C1146.23 292.38 1146.58 292.01 1146.83 291.54C1147.09 291.07 1147.22 290.545 1147.22 289.965C1147.22 289.385 1147.09 288.865 1146.83 288.405C1146.58 287.945 1146.23 287.58 1145.79 287.31C1145.36 287.04 1144.88 286.905 1144.34 286.905C1143.8 286.905 1143.31 287.04 1142.87 287.31C1142.44 287.58 1142.09 287.945 1141.83 288.405C1141.57 288.865 1141.44 289.385 1141.44 289.965C1141.44 290.545 1141.57 291.07 1141.83 291.54C1142.09 292.01 1142.44 292.38 1142.87 292.65C1143.31 292.92 1143.8 293.055 1144.34 293.055ZM1150.4 294V285.96H1151.52V287.28L1151.37 287.085C1151.56 286.705 1151.85 286.405 1152.23 286.185C1152.62 285.965 1153.09 285.855 1153.64 285.855H1154.15V286.98H1153.44C1152.86 286.98 1152.4 287.16 1152.05 287.52C1151.7 287.88 1151.52 288.39 1151.52 289.05V294H1150.4ZM1157.03 294L1161.11 282.825H1162.4L1166.48 294H1165.22L1164.26 291.27H1159.26L1158.29 294H1157.03ZM1159.65 290.145H1163.84L1161.57 283.725H1161.93L1159.65 290.145ZM1171.14 294.18C1170.39 294.18 1169.71 294 1169.11 293.64C1168.51 293.27 1168.04 292.77 1167.69 292.14C1167.35 291.5 1167.18 290.78 1167.18 289.98C1167.18 289.17 1167.35 288.45 1167.69 287.82C1168.04 287.19 1168.51 286.695 1169.1 286.335C1169.7 285.965 1170.38 285.78 1171.14 285.78C1171.83 285.78 1172.44 285.93 1172.98 286.23C1173.52 286.53 1173.95 286.935 1174.26 287.445L1174.08 287.76V282.645H1175.2V294H1174.08V292.2L1174.26 292.365C1173.98 292.945 1173.56 293.395 1173 293.715C1172.45 294.025 1171.83 294.18 1171.14 294.18ZM1171.2 293.055C1171.74 293.055 1172.22 292.92 1172.65 292.65C1173.09 292.38 1173.44 292.015 1173.69 291.555C1173.95 291.085 1174.08 290.56 1174.08 289.98C1174.08 289.4 1173.95 288.88 1173.69 288.42C1173.44 287.95 1173.09 287.58 1172.65 287.31C1172.22 287.04 1171.74 286.905 1171.2 286.905C1170.67 286.905 1170.19 287.04 1169.76 287.31C1169.33 287.58 1168.99 287.945 1168.74 288.405C1168.5 288.865 1168.38 289.39 1168.38 289.98C1168.38 290.56 1168.5 291.085 1168.74 291.555C1168.99 292.015 1169.32 292.38 1169.74 292.65C1170.17 292.92 1170.66 293.055 1171.2 293.055ZM1177.51 294V285.96H1178.64V287.49L1178.46 287.265C1178.68 286.795 1179 286.43 1179.43 286.17C1179.87 285.91 1180.35 285.78 1180.87 285.78C1181.49 285.78 1182.05 285.955 1182.55 286.305C1183.05 286.655 1183.41 287.11 1183.62 287.67L1183.3 287.685C1183.5 287.065 1183.85 286.595 1184.34 286.275C1184.84 285.945 1185.39 285.78 1185.99 285.78C1186.53 285.78 1187.02 285.91 1187.47 286.17C1187.93 286.43 1188.3 286.79 1188.57 287.25C1188.85 287.7 1188.99 288.21 1188.99 288.78V294H1187.86V289.215C1187.86 288.725 1187.77 288.31 1187.59 287.97C1187.42 287.63 1187.19 287.37 1186.89 287.19C1186.59 287 1186.24 286.905 1185.85 286.905C1185.47 286.905 1185.13 287 1184.82 287.19C1184.51 287.37 1184.26 287.635 1184.08 287.985C1183.9 288.325 1183.81 288.735 1183.81 289.215V294H1182.69V289.215C1182.69 288.725 1182.6 288.31 1182.42 287.97C1182.25 287.63 1182.01 287.37 1181.71 287.19C1181.41 287 1181.07 286.905 1180.68 286.905C1180.29 286.905 1179.94 287 1179.63 287.19C1179.33 287.37 1179.09 287.635 1178.91 287.985C1178.73 288.325 1178.64 288.735 1178.64 289.215V294H1177.51ZM1191.14 294V285.96H1192.26V294H1191.14ZM1191.14 284.475V282.825H1192.26V284.475H1191.14ZM1194.56 294V285.96H1195.69V287.52L1195.43 287.46C1195.63 286.94 1195.96 286.53 1196.41 286.23C1196.87 285.93 1197.4 285.78 1198 285.78C1198.57 285.78 1199.08 285.91 1199.53 286.17C1199.99 286.43 1200.35 286.79 1200.61 287.25C1200.88 287.7 1201.01 288.21 1201.01 288.78V294H1199.89V289.215C1199.89 288.725 1199.8 288.31 1199.62 287.97C1199.45 287.63 1199.2 287.37 1198.88 287.19C1198.57 287 1198.21 286.905 1197.8 286.905C1197.39 286.905 1197.03 287 1196.71 287.19C1196.39 287.37 1196.14 287.635 1195.96 287.985C1195.78 288.325 1195.69 288.735 1195.69 289.215V294H1194.56Z" fill="#121212"/>
<defs>
<filter id="filter0_d_1435_1885" x="0" y="0" width="343" height="332" filterUnits="userSpaceOnUse" color-interpolation-filters="sRGB">
<feFlood flood-opacity="0" result="BackgroundImageFix"/>
<feColorMatrix in="SourceAlpha" type="matrix" values="0 0 0 0 0 0 0 0 0 0 0 0 0 0 0 0 0 0 127 0" result="hardAlpha"/>
<feOffset dx="4" dy="4"/>
<feGaussianBlur stdDeviation="7.5"/>
<feComposite in2="hardAlpha" operator="out"/>
<feColorMatrix type="matrix" values="0 0 0 0 0 0 0 0 0 0 0 0 0 0 0 0 0 0 0.25 0"/>
<feBlend mode="normal" in2="BackgroundImageFix" result="effect1_dropShadow_1435_1885"/>
<feBlend mode="normal" in="SourceGraphic" in2="effect1_dropShadow_1435_1885" result="shape"/>
</filter>
<filter id="filter1_d_1435_1885" x="0" y="0" width="343" height="223" filterUnits="userSpaceOnUse" color-interpolation-filters="sRGB">
<feFlood flood-opacity="0" result="BackgroundImageFix"/>
<feColorMatrix in="SourceAlpha" type="matrix" values="0 0 0 0 0 0 0 0 0 0 0 0 0 0 0 0 0 0 127 0" result="hardAlpha"/>
<feOffset dx="4" dy="4"/>
<feGaussianBlur stdDeviation="7.5"/>
<feComposite in2="hardAlpha" operator="out"/>
<feColorMatrix type="matrix" values="0 0 0 0 0 0 0 0 0 0 0 0 0 0 0 0 0 0 0.25 0"/>
<feBlend mode="normal" in2="BackgroundImageFix" result="effect1_dropShadow_1435_1885"/>
<feBlend mode="normal" in="SourceGraphic" in2="effect1_dropShadow_1435_1885" result="shape"/>
</filter>
<filter id="filter2_d_1435_1885" x="333" y="0" width="343" height="332" filterUnits="userSpaceOnUse" color-interpolation-filters="sRGB">
<feFlood flood-opacity="0" result="BackgroundImageFix"/>
<feColorMatrix in="SourceAlpha" type="matrix" values="0 0 0 0 0 0 0 0 0 0 0 0 0 0 0 0 0 0 127 0" result="hardAlpha"/>
<feOffset dx="4" dy="4"/>
<feGaussianBlur stdDeviation="7.5"/>
<feComposite in2="hardAlpha" operator="out"/>
<feColorMatrix type="matrix" values="0 0 0 0 0 0 0 0 0 0 0 0 0 0 0 0 0 0 0.25 0"/>
<feBlend mode="normal" in2="BackgroundImageFix" result="effect1_dropShadow_1435_1885"/>
<feBlend mode="normal" in="SourceGraphic" in2="effect1_dropShadow_1435_1885" result="shape"/>
</filter>
<filter id="filter3_d_1435_1885" x="333" y="0" width="343" height="223" filterUnits="userSpaceOnUse" color-interpolation-filters="sRGB">
<feFlood flood-opacity="0" result="BackgroundImageFix"/>
<feColorMatrix in="SourceAlpha" type="matrix" values="0 0 0 0 0 0 0 0 0 0 0 0 0 0 0 0 0 0 127 0" result="hardAlpha"/>
<feOffset dx="4" dy="4"/>
<feGaussianBlur stdDeviation="7.5"/>
<feComposite in2="hardAlpha" operator="out"/>
<feColorMatrix type="matrix" values="0 0 0 0 0 0 0 0 0 0 0 0 0 0 0 0 0 0 0.25 0"/>
<feBlend mode="normal" in2="BackgroundImageFix" result="effect1_dropShadow_1435_1885"/>
<feBlend mode="normal" in="SourceGraphic" in2="effect1_dropShadow_1435_1885" result="shape"/>
</filter>
<filter id="filter4_d_1435_1885" x="666" y="0" width="343" height="332" filterUnits="userSpaceOnUse" color-interpolation-filters="sRGB">
<feFlood flood-opacity="0" result="BackgroundImageFix"/>
<feColorMatrix in="SourceAlpha" type="matrix" values="0 0 0 0 0 0 0 0 0 0 0 0 0 0 0 0 0 0 127 0" result="hardAlpha"/>
<feOffset dx="4" dy="4"/>
<feGaussianBlur stdDeviation="7.5"/>
<feComposite in2="hardAlpha" operator="out"/>
<feColorMatrix type="matrix" values="0 0 0 0 0 0 0 0 0 0 0 0 0 0 0 0 0 0 0.25 0"/>
<feBlend mode="normal" in2="BackgroundImageFix" result="effect1_dropShadow_1435_1885"/>
<feBlend mode="normal" in="SourceGraphic" in2="effect1_dropShadow_1435_1885" result="shape"/>
</filter>
<filter id="filter5_d_1435_1885" x="666" y="0" width="343" height="223" filterUnits="userSpaceOnUse" color-interpolation-filters="sRGB">
<feFlood flood-opacity="0" result="BackgroundImageFix"/>
<feColorMatrix in="SourceAlpha" type="matrix" values="0 0 0 0 0 0 0 0 0 0 0 0 0 0 0 0 0 0 127 0" result="hardAlpha"/>
<feOffset dx="4" dy="4"/>
<feGaussianBlur stdDeviation="7.5"/>
<feComposite in2="hardAlpha" operator="out"/>
<feColorMatrix type="matrix" values="0 0 0 0 0 0 0 0 0 0 0 0 0 0 0 0 0 0 0.25 0"/>
<feBlend mode="normal" in2="BackgroundImageFix" result="effect1_dropShadow_1435_1885"/>
<feBlend mode="normal" in="SourceGraphic" in2="effect1_dropShadow_1435_1885" result="shape"/>
</filter>
<filter id="filter6_d_1435_1885" x="999" y="0" width="343" height="332" filterUnits="userSpaceOnUse" color-interpolation-filters="sRGB">
<feFlood flood-opacity="0" result="BackgroundImageFix"/>
<feColorMatrix in="SourceAlpha" type="matrix" values="0 0 0 0 0 0 0 0 0 0 0 0 0 0 0 0 0 0 127 0" result="hardAlpha"/>
<feOffset dx="4" dy="4"/>
<feGaussianBlur stdDeviation="7.5"/>
<feComposite in2="hardAlpha" operator="out"/>
<feColorMatrix type="matrix" values="0 0 0 0 0 0 0 0 0 0 0 0 0 0 0 0 0 0 0.25 0"/>
<feBlend mode="normal" in2="BackgroundImageFix" result="effect1_dropShadow_1435_1885"/>
<feBlend mode="normal" in="SourceGraphic" in2="effect1_dropShadow_1435_1885" result="shape"/>
</filter>
<filter id="filter7_d_1435_1885" x="999" y="0" width="343" height="223" filterUnits="userSpaceOnUse" color-interpolation-filters="sRGB">
<feFlood flood-opacity="0" result="BackgroundImageFix"/>
<feColorMatrix in="SourceAlpha" type="matrix" values="0 0 0 0 0 0 0 0 0 0 0 0 0 0 0 0 0 0 127 0" result="hardAlpha"/>
<feOffset dx="4" dy="4"/>
<feGaussianBlur stdDeviation="7.5"/>
<feComposite in2="hardAlpha" operator="out"/>
<feColorMatrix type="matrix" values="0 0 0 0 0 0 0 0 0 0 0 0 0 0 0 0 0 0 0.25 0"/>
<feBlend mode="normal" in2="BackgroundImageFix" result="effect1_dropShadow_1435_1885"/>
<feBlend mode="normal" in="SourceGraphic" in2="effect1_dropShadow_1435_1885" result="shape"/>
</filter>
<clipPath id="clip0_1435_1885">
<rect width="117" height="117" fill="white" transform="translate(442 49)"/>
</clipPath>
</defs>
</svg>
